<svg xmlns="http://www.w3.org/2000/svg" xmlns:xlink="http://www.w3.org/1999/xlink" version="1.1" style="" xml:space="preserve" width="57" height="59"><rect id="backgroundrect" width="100%" height="100%" x="0" y="0" fill="none" stroke="none"/>
















<g class="currentLayer" style=""><title>Layer 1</title><path d="M47,39 c-2.6710000000000003,0 -5.182,1.04 -7.071,2.9290000000000003 c-0.524,0.524 -0.975,1.1 -1.365,1.709 l-17.28,-10.489 C21.741,32.005 22,30.761 22,29.456 c0,-1.3050000000000002 -0.259,-2.549 -0.7150000000000001,-3.693 l17.284,-10.409 C40.345,18.142 43.456,20 47,20 c5.514,0 10,-4.486 10,-10 S52.514,0 47,0 S37,4.486 37,10 c0,1.256 0.24300000000000002,2.454 0.6670000000000001,3.5620000000000003 L20.361,23.985 c-1.788,-2.724 -4.866,-4.529 -8.361,-4.529 c-5.514,0 -10,4.486 -10,10 s4.486,10 10,10 c3.495,0 6.572,-1.8050000000000002 8.36,-4.529 L37.664,45.43 C37.234,46.556 37,47.759 37,49 c0,2.6710000000000003 1.04,5.183 2.9290000000000003,7.071 C41.818,57.96 44.329,59 47,59 s5.182,-1.04 7.071,-2.9290000000000003 C55.96,54.183 57,51.671 57,49 s-1.04,-5.183 -2.9290000000000003,-7.071 C52.182,40.04 49.671,39 47,39 z" id="svg_1" class="selected" fill-opacity="1" fill="#757575"/><g id="svg_2" class="selected" fill-opacity="1" fill="#757575">
</g><g id="svg_3" class="selected" fill-opacity="1" fill="#757575">
</g><g id="svg_4" class="selected" fill-opacity="1" fill="#757575">
</g><g id="svg_5" class="selected" fill-opacity="1" fill="#757575">
</g><g id="svg_6" class="selected" fill-opacity="1" fill="#757575">
</g><g id="svg_7" class="selected" fill-opacity="1" fill="#757575">
</g><g id="svg_8" class="selected" fill-opacity="1" fill="#757575">
</g><g id="svg_9" class="selected" fill-opacity="1" fill="#757575">
</g><g id="svg_10" class="selected" fill-opacity="1" fill="#757575">
</g><g id="svg_11" class="selected" fill-opacity="1" fill="#757575">
</g><g id="svg_12" class="selected" fill-opacity="1" fill="#757575">
</g><g id="svg_13" class="selected" fill-opacity="1" fill="#757575">
</g><g id="svg_14" class="selected" fill-opacity="1" fill="#757575">
</g><g id="svg_15" class="selected" fill-opacity="1" fill="#757575">
</g><g id="svg_16" class="selected" fill-opacity="1" fill="#757575">
</g></g></svg>